<svg width="32" height="32" viewBox="0 0 32 32" xmlns="http://www.w3.org/2000/svg">
  <rect x="0" y="0" width="32" height="32" rx="6" fill="#EC1C24"/>
  <path d="M 16 8
           C 11 8, 8 11, 8 16
           C 8 21, 11 24, 16 24
           C 19 24, 21.5 22.5, 22.5 20.5
           L 19.5 19
           C 19 20, 17.5 21, 16 21
           C 13.2 21, 11 19, 11 16
           C 11 13, 13.2 11, 16 11
           C 18.8 11, 21 13, 21 16
           L 24 16
           C 24 11, 21 8, 16 8 Z"
        fill="white"/>
</svg>
